<?xml version="1.0" standalone="no"?>
<!DOCTYPE svg PUBLIC "-//W3C//DTD SVG 20010904//EN"
 "http://www.w3.org/TR/2001/REC-SVG-20010904/DTD/svg10.dtd">
<svg version="1.0" xmlns="http://www.w3.org/2000/svg"
 width="700.000000pt" height="700.000000pt" viewBox="0 0 700.000000 700.000000"
 preserveAspectRatio="xMidYMid meet">
<metadata>
Created by potrace 1.14, written by Peter Selinger 2001-2017
</metadata>
<g transform="translate(0.000000,700.000000) scale(0.100000,-0.100000)"
fill="#000000" stroke="none">
<path d="M2616 6984 c-19 -18 -19 -20 -6 -45 11 -19 45 -25 66 -11 20 14 23
40 5 56 -22 20 -45 20 -65 0z"/>
<path d="M3712 6969 c-78 -16 -124 -100 -101 -183 21 -76 118 -118 188 -83 27
13 31 14 31 1 0 -27 -30 -73 -52 -80 -34 -12 -70 -5 -95 18 -16 15 -29 19 -47
14 -66 -16 9 -92 97 -99 67 -6 120 22 146 76 19 40 25 80 35 265 l4 62 -33 0
c-18 0 -35 -6 -38 -12 -3 -10 -7 -10 -20 0 -24 20 -77 29 -115 21z m82 -70
c25 -12 34 -26 42 -67 6 -30 -45 -82 -80 -82 -70 0 -104 92 -51 138 29 25 52
27 89 11z"/>
<path d="M3145 6948 c-11 -6 -26 -18 -32 -26 -12 -14 -13 -14 -13 4 0 17 -5
19 -35 16 -39 -5 -39 -4 -25 -100 12 -85 19 -143 20 -159 0 -8 14 -13 36 -13
l36 0 -7 67 c-4 37 -9 71 -11 74 -2 4 1 21 7 39 13 37 48 54 84 40 23 -9 48
-48 43 -68 -1 -4 2 -35 6 -69 l8 -63 35 0 34 0 -6 73 c-13 148 -43 197 -119
197 -23 0 -50 -6 -61 -12z"/>
<path d="M4665 6918 c-2 -7 -31 -91 -65 -187 -34 -95 -58 -177 -53 -181 4 -5
20 -11 34 -15 25 -6 27 -4 86 162 83 231 79 209 42 222 -40 14 -39 14 -44 -1z"/>
<path d="M2657 6863 c-18 -5 -17 -25 3 -83 5 -14 19 -61 30 -106 l21 -81 32 6
c37 8 37 14 6 126 -11 39 -22 78 -24 88 -13 58 -19 63 -68 50z"/>
<path d="M2223 6830 c-28 -11 -28 -8 -3 -64 13 -32 16 -46 7 -46 -7 0 -18 -4
-26 -9 -21 -14 3 -46 34 -46 24 0 31 -9 66 -95 22 -52 41 -95 42 -96 1 -1 16
4 34 10 l32 11 -40 94 c-21 52 -39 98 -39 103 0 5 11 13 24 19 16 8 22 17 19
30 -7 26 -17 31 -45 20 -20 -8 -25 -4 -43 32 -22 45 -30 50 -62 37z"/>
<path d="M4942 6540 l-63 -119 30 -16 30 -15 27 47 c57 101 65 111 88 117 14
3 36 2 50 -4 43 -16 42 -49 -3 -138 -39 -78 -40 -82 -22 -92 36 -19 47 -10 89
69 44 82 54 131 33 169 -16 31 -67 55 -107 50 -28 -3 -33 -1 -29 12 5 15 -29
40 -53 40 -4 0 -35 -54 -70 -120z"/>
<path d="M1825 6536 c-82 -36 -113 -113 -75 -190 50 -105 191 -113 261 -15 28
38 28 63 1 67 -17 3 -33 -7 -55 -33 -35 -39 -80 -52 -111 -30 -16 12 -8 19 79
65 l96 52 -20 31 c-38 60 -111 82 -176 53z m89 -59 c17 -13 17 -14 -5 -29 -13
-8 -43 -25 -66 -37 l-43 -21 0 23 c0 55 71 95 114 64z"/>
<path d="M5583 6405 c-37 -31 -45 -34 -64 -25 -11 7 -22 10 -23 8 -1 -2 -8
-11 -15 -20 -11 -15 -10 -20 8 -35 l21 -18 -65 -85 c-36 -46 -65 -85 -65 -86
0 -2 13 -12 28 -23 l28 -20 63 85 c34 46 66 84 72 84 5 0 18 -6 30 -12 17 -11
22 -10 35 7 14 18 13 22 -11 41 l-25 20 24 23 c24 23 44 24 86 8 9 -4 22 3 32
17 17 23 17 25 -9 41 -15 10 -45 20 -67 22 -36 4 -46 0 -83 -32z"/>
<path d="M1365 6232 c-41 -26 -55 -44 -61 -84 -11 -67 69 -103 144 -64 39 20
61 20 69 1 9 -25 -27 -57 -57 -52 -33 7 -82 -29 -59 -44 46 -30 95 -22 145 24
45 43 54 85 22 120 -29 34 -58 36 -126 12 -41 -15 -55 -16 -64 -7 -20 20 4 47
41 47 17 1 39 9 48 18 17 17 17 19 -1 33 -27 19 -65 18 -101 -4z"/>
<path d="M5782 6007 c-50 -51 -92 -97 -92 -102 0 -6 11 -18 24 -27 23 -16 24
-16 67 28 78 80 138 96 174 47 12 -16 14 -16 39 0 22 15 25 21 16 37 -15 28
-47 43 -81 38 -26 -4 -28 -3 -14 12 13 15 13 19 -8 38 -13 12 -25 22 -28 22
-2 0 -46 -42 -97 -93z"/>
<path d="M926 6040 c-41 -49 -29 -121 27 -163 15 -11 12 -18 -31 -65 -46 -51
-48 -53 -69 -37 -26 18 -29 51 -8 79 13 17 12 21 -12 39 -25 20 -26 20 -40 1
-48 -61 -45 -114 7 -165 25 -25 26 -28 12 -43 -15 -15 -15 -18 4 -36 20 -21
20 -21 38 -1 18 20 19 20 95 -41 42 -34 79 -67 83 -73 5 -6 18 0 35 17 15 15
25 29 22 31 -2 2 -41 34 -87 71 l-82 68 46 53 46 54 86 -69 c48 -39 89 -70 92
-70 7 1 43 51 38 54 -1 1 -40 33 -86 70 l-83 69 21 22 20 22 -20 18 c-20 18
-21 18 -46 -6 l-26 -24 -19 24 c-23 28 -24 49 -4 71 13 15 13 19 -9 39 l-23
22 -27 -31z"/>
<path d="M3417 5994 c-1 -1 -38 -5 -82 -7 -302 -21 -668 -127 -954 -279 -211
-112 -369 -226 -563 -407 l-58 -54 97 -66 c109 -74 233 -192 310 -295 88 -118
178 -312 198 -425 3 -19 8 -37 10 -41 8 -13 19 -143 18 -220 -1 -160 -35 -299
-109 -445 -154 -303 -471 -530 -835 -600 -135 -25 -134 -25 -149 48 -7 34 -14
73 -16 87 -2 14 -6 34 -9 45 -23 108 -23 486 0 607 3 12 7 40 11 63 18 125 30
153 98 226 120 129 205 279 251 443 35 121 43 169 51 294 5 75 4 92 -7 92 -26
0 -163 -57 -224 -93 -187 -110 -284 -275 -291 -492 -1 -55 2 -125 7 -155 13
-80 13 -85 -14 -210 -14 -63 -28 -142 -32 -175 -3 -33 -8 -76 -11 -95 -7 -46
-6 -318 0 -395 12 -133 36 -264 77 -419 l10 -38 97 5 c104 7 117 9 232 33 395
85 746 358 908 706 96 204 128 469 86 692 -2 12 -6 35 -9 51 -13 64 -69 223
-103 290 -52 104 -137 228 -206 303 -82 89 -184 182 -198 182 -43 0 113 131
282 238 319 201 686 324 1065 357 79 7 349 7 410 0 22 -2 65 -7 95 -10 296
-33 639 -152 915 -318 96 -58 224 -146 215 -148 -3 -1 -31 -3 -64 -6 -135 -11
-317 -84 -424 -171 l-54 -44 -129 6 c-71 3 -128 2 -128 -2 1 -4 1 -38 0 -75
l-1 -68 -70 4 c-45 2 -70 -1 -71 -7 -3 -23 -8 -136 -11 -230 l-3 -100 40 -2
c22 -1 101 -3 175 -5 l135 -4 3 73 3 73 65 -2 c35 -1 68 1 71 5 8 8 10 28 12
140 1 76 2 79 36 110 138 126 368 186 562 146 47 -10 64 -20 105 -62 272 -279
473 -641 562 -1011 14 -56 28 -124 32 -152 3 -27 8 -59 10 -70 3 -11 7 -65 10
-120 l5 -100 -36 68 c-54 105 -111 183 -199 275 -82 85 -225 189 -322 234 -27
13 -70 40 -95 60 -117 95 -283 181 -390 203 -67 14 -209 17 -277 5 -85 -14
-198 -63 -288 -123 -75 -51 -170 -134 -163 -142 3 -2 36 -18 74 -36 305 -138
656 -172 966 -94 60 15 69 15 102 1 42 -17 49 -36 14 -36 -43 0 -182 -41 -274
-81 -92 -41 -203 -112 -284 -182 -53 -46 -51 -48 76 -78 263 -62 478 10 640
214 l30 38 56 -53 c113 -107 208 -258 258 -409 36 -109 50 -214 47 -349 -3
-136 -19 -200 -99 -392 -64 -152 -195 -378 -296 -507 -18 -24 -18 -24 -9 35 9
56 6 267 -5 309 -3 11 -11 41 -17 67 -11 42 -10 50 8 75 74 106 134 268 157
426 13 94 2 321 -17 333 -5 3 -26 -7 -46 -22 -163 -124 -256 -273 -264 -424
l-3 -45 -95 95 c-121 122 -248 206 -403 269 l-58 24 -50 105 c-27 58 -51 107
-53 109 -2 3 -36 -9 -74 -25 l-70 -30 -26 59 c-14 32 -30 59 -36 59 -6 0 -30
-9 -53 -19 -23 -10 -87 -38 -142 -61 -55 -23 -104 -46 -109 -51 -6 -5 10 -50
38 -111 27 -57 58 -125 69 -151 24 -54 21 -53 109 -13 l57 25 27 -59 c15 -33
30 -60 34 -60 5 0 56 20 114 45 l105 45 50 -20 c377 -148 614 -468 612 -824
-1 -125 -30 -239 -96 -371 -51 -102 -60 -114 -125 -165 -275 -215 -574 -359
-914 -440 -122 -29 -149 -34 -241 -46 -27 -3 -61 -8 -75 -9 -22 -4 -23 -3 -8
8 9 7 44 32 78 57 117 84 233 227 314 387 30 61 45 78 97 114 179 121 317 304
367 486 28 99 27 262 -2 373 -12 47 -28 95 -34 107 -14 25 -19 24 -148 -26
-372 -144 -497 -453 -341 -841 14 -33 21 -57 17 -55 -5 3 -21 -27 -36 -65 -15
-39 -30 -73 -34 -75 -4 -2 -17 43 -30 100 -46 209 -162 421 -316 580 l-78 80
-18 -58 c-67 -218 -55 -416 35 -576 42 -74 156 -187 240 -238 l68 -40 -36 -43
c-106 -127 -257 -221 -425 -265 -73 -19 -208 -15 -340 10 -14 3 -41 7 -60 10
-131 21 -344 87 -443 136 -182 92 -322 246 -391 431 -32 86 -41 141 -41 258 1
186 66 290 179 290 43 0 72 -12 159 -68 90 -58 237 -127 310 -145 117 -31 246
-7 309 56 63 63 118 170 133 257 10 59 15 68 46 79 67 23 112 72 120 131 2 14
17 35 34 48 16 12 35 33 42 45 15 27 17 86 3 121 -5 14 -6 26 -2 27 40 4 71
13 101 28 102 52 111 137 27 247 -87 113 -151 301 -135 391 5 23 28 98 53 165
90 251 120 403 120 618 0 156 -11 231 -52 350 -87 251 -302 474 -570 590 -129
56 -129 56 -134 20 -6 -43 10 -155 33 -225 65 -195 230 -437 465 -684 117
-123 114 -115 100 -221 -14 -120 -42 -229 -91 -366 -77 -212 -77 -212 -72
-309 7 -129 63 -277 151 -400 l36 -50 -34 -7 c-19 -4 -61 -9 -95 -11 -47 -3
-67 -9 -86 -27 -34 -32 -31 -65 11 -128 20 -29 34 -56 30 -59 -6 -6 -41 1
-162 33 -19 5 -22 1 -27 -48 -3 -29 -7 -61 -9 -71 -2 -14 9 -22 46 -35 75 -26
74 -46 -3 -40 l-61 4 -5 -35 c-32 -198 -70 -302 -126 -341 -76 -55 -211 -19
-429 115 -133 80 -151 87 -247 86 -46 0 -77 -7 -117 -26 -135 -64 -199 -193
-200 -405 -1 -63 3 -137 7 -165 23 -141 108 -313 214 -434 62 -69 172 -155
263 -205 108 -58 409 -150 560 -170 51 -7 121 -17 150 -23 66 -12 443 -10 555
3 459 54 868 213 1220 473 125 92 144 108 286 251 349 353 560 764 645 1265
13 74 18 161 18 330 1 221 -3 285 -25 398 -5 29 -12 66 -15 82 -13 78 -69 268
-99 340 -7 17 -23 55 -35 85 -61 152 -198 380 -324 540 -70 89 -221 247 -295
308 -24 21 -58 49 -75 65 -116 102 -375 259 -565 343 -182 80 -442 156 -611
179 -25 3 -56 8 -70 10 -98 15 -462 29 -473 19z"/>
<path d="M6110 5711 c-61 -32 -98 -108 -78 -161 13 -34 58 -80 79 -80 21 0 33
-16 19 -25 -11 -7 16 -55 31 -55 8 0 186 126 213 151 5 5 2 19 -8 34 -12 19
-23 24 -36 20 -15 -5 -18 -2 -14 8 9 25 -23 86 -58 107 -41 25 -103 26 -148 1z
m131 -72 c32 -32 23 -87 -19 -116 -38 -25 -65 -23 -99 8 -31 30 -30 73 2 104
31 32 86 34 116 4z"/>
<path d="M482 5395 c-130 -67 -149 -240 -36 -333 137 -113 356 -20 356 150 0
114 -83 196 -207 205 -51 4 -68 0 -113 -22z m168 -63 c72 -35 101 -123 61
-188 -66 -108 -252 -64 -268 64 -12 104 104 174 207 124z"/>
<path d="M6482 5253 c-24 -10 -42 -60 -36 -100 12 -68 10 -78 -13 -81 -28 -4
-53 40 -37 66 12 18 -4 62 -22 62 -39 0 -55 -89 -25 -137 30 -48 64 -67 106
-59 53 10 68 41 60 119 -6 53 -4 65 9 70 21 8 48 -30 36 -53 -6 -11 -3 -25 9
-44 l18 -27 22 27 c25 32 26 52 5 97 -25 52 -85 79 -132 60z"/>
<path d="M6737 4843 c-14 -4 -17 -11 -12 -32 5 -26 3 -27 -94 -59 -55 -18
-103 -37 -106 -42 -5 -8 7 -41 20 -57 1 -2 48 13 105 32 104 36 119 36 120 -2
0 -16 15 -16 40 -3 16 8 18 15 10 36 -8 20 -6 26 8 30 82 27 81 27 67 61 l-14
32 -35 -14 c-47 -20 -63 -19 -71 5 -3 11 -9 19 -13 19 -4 -1 -15 -3 -25 -6z"/>
<path d="M241 4410 c-18 -4 -42 -17 -53 -28 -23 -23 -37 -106 -19 -116 15 -10
14 -26 -3 -26 -8 0 -17 -7 -20 -16 -8 -22 -8 -54 2 -52 4 1 39 -4 77 -11 39
-8 77 -15 85 -16 8 -2 34 -8 58 -13 45 -11 46 -10 56 30 7 30 8 30 -94 48 -80
14 -101 29 -103 70 -2 24 5 37 23 51 24 18 28 18 113 0 48 -9 89 -15 91 -12 2
3 6 18 10 33 5 23 3 28 -16 32 -170 35 -167 35 -207 26z"/>
<path d="M6815 4394 c-77 -17 -91 -20 -143 -29 -42 -7 -43 -8 -36 -38 3 -18 7
-33 9 -35 1 -1 26 3 56 8 121 24 179 8 179 -49 0 -24 4 -27 32 -26 17 0 33 6
36 13 8 26 -10 63 -41 82 -28 18 -30 20 -9 20 23 0 26 9 16 48 -7 25 -15 25
-99 6z"/>
<path d="M6811 3938 c-72 -8 -106 -41 -106 -102 0 -28 6 -51 18 -63 20 -23 22
-34 5 -30 -12 2 -19 -35 -11 -59 2 -7 24 -9 56 -7 29 1 88 5 132 7 44 2 83 5
88 5 12 2 8 61 -5 62 -7 1 -50 0 -95 -1 -71 -1 -84 1 -102 19 -38 38 -19 99
32 103 12 0 33 2 47 3 14 2 46 3 73 4 l47 1 0 35 0 36 -62 -3 c-35 -2 -87 -6
-117 -10z"/>
<path d="M174 3860 c-64 -26 -101 -129 -68 -191 74 -145 284 -97 284 65 0 43
-46 113 -84 126 -34 12 -102 12 -132 0z m140 -99 c18 -35 12 -62 -20 -90 -68
-58 -174 30 -121 102 31 43 117 36 141 -12z"/>
<path d="M6803 3400 c-98 -21 -152 -126 -108 -210 18 -35 26 -37 48 -12 13 14
15 25 7 51 -13 46 9 88 53 99 39 10 59 6 86 -19 25 -24 27 -70 5 -104 -12 -18
-13 -28 -4 -44 12 -24 15 -25 39 -11 42 22 60 126 32 178 -28 52 -99 84 -158
72z"/>
<path d="M202 3299 c-52 -32 -67 -57 -67 -114 0 -43 5 -59 24 -79 14 -14 20
-26 15 -27 -5 0 -18 -2 -29 -4 -11 -2 -40 -7 -65 -10 -77 -11 -81 -13 -74 -48
3 -17 6 -32 7 -33 1 0 52 7 112 17 61 10 128 21 150 24 22 3 67 10 100 15 33
6 62 10 65 10 4 0 4 15 2 34 -3 29 -7 33 -25 28 -20 -5 -21 -4 -8 12 22 26 19
107 -5 138 -40 56 -142 74 -202 37z m131 -63 c10 -8 22 -28 27 -45 10 -37 -14
-73 -59 -89 -71 -25 -134 76 -80 127 26 24 84 28 112 7z"/>
<path d="M6605 2878 c-16 -50 -15 -51 97 -82 104 -28 107 -30 101 -54 -3 -15
-1 -27 8 -33 24 -15 38 -10 45 17 5 21 11 25 31 19 77 -19 82 -18 88 8 9 36 0
46 -46 53 -38 6 -41 9 -37 35 3 19 0 29 -8 29 -7 0 -19 3 -27 6 -10 3 -17 -3
-21 -19 l-6 -24 -82 22 c-138 37 -138 37 -143 23z"/>
<path d="M236 2732 c-11 -18 25 -73 56 -87 18 -8 25 -14 16 -15 -9 0 -19 -4
-23 -10 -8 -14 5 -60 18 -60 6 0 69 18 139 40 l127 40 -11 30 c-12 35 -15 35
-93 11 -95 -30 -154 -16 -158 37 -1 18 -8 22 -34 22 -17 0 -34 -3 -37 -8z"/>
<path d="M6495 2501 c-40 -17 -60 -51 -60 -100 0 -39 -3 -47 -16 -44 -9 3 -19
-3 -23 -14 -3 -10 -8 -23 -11 -29 -3 -6 17 -21 47 -34 29 -13 88 -38 130 -56
l77 -33 15 30 15 31 -64 29 c-36 16 -68 29 -73 29 -5 0 -17 9 -27 20 -38 42
-9 112 43 105 15 -2 59 -17 97 -34 74 -31 89 -29 97 13 2 16 -14 26 -87 57
-91 39 -123 45 -160 30z"/>
<path d="M537 2319 l-117 -59 15 -30 c10 -19 20 -27 30 -24 11 5 14 -2 13 -28
-5 -135 171 -180 266 -68 47 56 27 154 -36 182 -20 10 -24 15 -16 25 13 17 -5
63 -24 62 -7 0 -66 -27 -131 -60z m138 -74 c31 -30 32 -66 2 -101 -48 -56
-137 -26 -139 46 -2 69 88 105 137 55z"/>
<path d="M6218 2033 l-16 -27 61 -41 c96 -63 116 -105 70 -150 -13 -14 -12
-17 9 -35 30 -25 34 -25 53 4 18 27 21 53 10 80 -7 16 -6 17 13 7 17 -9 23 -7
36 11 18 25 21 48 7 48 -5 0 -55 29 -112 65 -56 36 -105 65 -108 65 -4 0 -14
-12 -23 -27z"/>
<path d="M880 1853 c0 -27 4 -33 20 -33 59 0 120 -66 120 -130 0 -105 -134
-177 -226 -121 -36 22 -68 83 -61 117 3 20 -1 26 -27 33 -17 4 -34 7 -37 5 -4
-2 -5 -26 -4 -53 12 -209 294 -267 402 -84 61 104 15 233 -100 282 -66 29 -87
25 -87 -16z"/>
<path d="M5932 1663 c-44 -21 -74 -66 -80 -119 -4 -35 -2 -44 11 -44 27 0 47
12 47 27 0 49 69 106 105 86 13 -8 5 -21 -52 -82 -37 -41 -68 -78 -68 -84 0
-18 64 -50 104 -52 48 -3 104 26 130 68 75 122 -66 265 -197 200z m153 -142
c-12 -48 -56 -77 -94 -63 -18 6 -15 12 26 59 37 42 49 50 60 41 9 -7 12 -21 8
-37z"/>
<path d="M1466 1152 c-3 -5 14 -16 37 -26 168 -70 210 -92 220 -113 11 -24 7
-34 -90 -241 -32 -68 -43 -105 -43 -140 0 -51 1 -50 -62 -43 -5 1 -8 19 -8 40
0 41 9 64 84 225 67 143 67 137 0 164 -34 14 -61 19 -66 14 -5 -5 3 -14 21
-22 17 -7 33 -20 36 -29 3 -10 -21 -73 -57 -147 -59 -122 -62 -133 -62 -204 0
-59 4 -84 23 -119 30 -58 98 -122 163 -154 52 -26 238 -107 245 -107 2 0 7 10
12 22 7 20 -2 26 -133 82 -78 34 -140 66 -139 71 2 6 17 14 34 18 25 7 52 -1
151 -43 96 -41 122 -49 129 -38 17 26 8 33 -89 72 -53 22 -99 41 -101 42 -2 2
11 20 29 40 28 33 50 74 137 263 26 56 25 56 92 35 17 -5 22 -3 19 6 -5 15
-110 61 -120 52 -4 -4 -35 -68 -68 -142 -88 -192 -126 -238 -168 -199 l-22 19
37 38 c24 24 59 86 104 182 87 190 83 188 226 130 59 -24 114 -48 121 -53 9
-7 17 -6 24 1 9 9 3 15 -23 26 -19 8 -92 39 -164 70 -71 30 -132 53 -135 51
-3 -2 -39 -78 -80 -170 -41 -92 -88 -181 -104 -199 l-30 -31 -6 25 c-9 33 -6
39 111 288 27 57 49 107 49 111 0 7 -307 142 -322 141 -4 0 -9 -4 -12 -8z
m166 -629 c22 -26 31 -44 21 -42 -4 1 -12 0 -18 -1 -34 -8 -52 -2 -67 20 -10
14 -18 28 -18 33 0 15 67 7 82 -10z"/>
<path d="M4925 1127 c-22 -13 -103 -56 -180 -96 -77 -41 -143 -76 -148 -78 -4
-2 -5 -8 -2 -13 3 -5 21 -2 41 6 19 8 43 12 53 9 45 -14 57 -45 94 -260 20
-115 39 -219 41 -230 2 -11 7 -43 11 -72 6 -46 5 -52 -14 -58 -12 -3 -21 -13
-21 -21 0 -10 22 -3 80 26 79 40 98 65 41 54 -33 -7 -34 -6 -51 95 -6 35 -8
67 -3 71 13 11 162 90 170 90 5 0 34 -25 66 -55 62 -58 69 -87 24 -99 -16 -4
-19 -8 -11 -16 14 -14 364 166 364 187 0 11 -5 11 -30 -2 l-30 -15 -113 102
c-191 173 -271 244 -303 272 -39 32 -46 56 -28 92 8 14 14 28 14 30 0 10 -29
2 -65 -19z m-5 -90 c19 -17 55 -50 80 -71 25 -22 70 -62 101 -90 30 -28 76
-69 101 -91 126 -111 168 -151 168 -156 0 -3 -11 -11 -24 -17 -25 -11 -50 8
-207 152 -30 28 -88 80 -129 116 -41 36 -88 78 -105 94 -16 15 -41 37 -55 48
-24 19 -24 20 -6 34 28 20 37 18 76 -19z m-94 -55 c22 -20 74 -66 114 -102 40
-36 78 -70 84 -75 9 -9 110 -99 223 -199 l33 -29 -27 -14 c-21 -11 -29 -11
-42 -1 -21 17 -87 76 -127 113 -18 17 -45 41 -61 54 -39 34 -210 186 -256 229
l-39 35 24 13 c31 18 27 19 74 -24z m15 -155 c90 -77 149 -132 149 -137 0 -5
-140 -83 -140 -78 0 2 -11 56 -24 121 -12 64 -20 117 -17 117 3 0 18 -10 32
-23z"/>
<path d="M2431 802 c-20 -7 -11 -19 18 -25 57 -12 57 -38 7 -317 -3 -14 -14
-79 -26 -145 -11 -66 -27 -126 -34 -133 -7 -7 -27 -14 -45 -14 -17 -1 -34 -5
-37 -9 -6 -10 17 -16 101 -29 39 -5 128 -19 199 -30 148 -23 146 -23 146 -11
0 5 -13 14 -29 19 -16 6 -34 19 -39 29 -9 18 -9 26 2 88 3 17 8 48 12 70 3 22
9 54 12 71 l7 30 90 -14 c50 -7 99 -14 110 -15 24 -2 24 -25 0 -154 -19 -101
-34 -123 -82 -123 -40 0 -41 -21 -2 -26 13 -2 96 -15 184 -29 88 -14 174 -27
192 -28 35 -2 47 16 13 21 -11 2 -27 14 -36 27 -13 20 -13 33 -4 87 7 34 13
74 15 88 2 14 6 39 9 55 3 17 7 44 10 60 9 57 36 210 41 234 7 35 34 61 66 61
27 0 53 19 27 21 -14 1 -39 5 -113 19 -27 5 -75 12 -105 16 -30 4 -57 8 -60 9
-3 0 -27 4 -55 8 -27 4 -62 10 -77 13 -40 8 -35 -13 7 -30 19 -8 36 -22 36
-30 1 -9 2 -22 2 -28 1 -7 -7 -62 -18 -121 -18 -107 -19 -108 -44 -103 -14 3
-44 8 -66 11 -22 3 -56 9 -75 12 -19 3 -41 5 -48 6 -8 0 -11 9 -8 26 3 14 12
66 21 114 8 48 19 96 25 107 11 20 45 34 69 28 8 -2 15 2 18 9 2 7 -20 15 -64
22 -297 47 -362 56 -372 53z m184 -58 c-1 -8 -27 -181 -30 -194 -1 -3 -5 -25
-9 -50 -4 -25 -14 -76 -21 -115 -8 -38 -17 -90 -20 -115 -12 -93 -21 -125 -33
-124 -6 1 -21 2 -33 3 -14 1 -19 6 -15 19 5 17 80 448 91 527 3 22 8 46 10 53
5 14 60 11 60 -4z m111 -31 c-4 -16 -8 -39 -11 -53 -2 -14 -11 -70 -21 -125
-22 -130 -22 -130 -33 -200 -29 -183 -34 -206 -44 -206 -4 1 -18 1 -31 1 -22
0 -23 2 -15 38 4 20 10 53 12 72 3 19 21 132 41 250 21 118 38 223 39 233 1
12 10 17 35 17 31 0 33 -2 28 -27z m384 -55 c0 -11 -18 -124 -40 -252 -21
-127 -42 -253 -46 -281 -7 -56 -14 -64 -50 -57 -17 3 -23 10 -20 21 3 9 7 34
11 56 6 47 75 453 80 475 2 8 4 27 4 41 1 23 4 25 31 21 22 -3 30 -10 30 -24z
m109 -41 c-4 -23 -10 -60 -13 -82 -4 -22 -18 -105 -32 -185 -14 -80 -27 -161
-30 -180 -12 -97 -22 -130 -40 -124 -7 2 -20 6 -28 8 -11 4 -11 16 -1 78 7 40
16 90 19 111 15 94 18 111 22 131 2 11 13 77 24 146 11 69 22 130 24 136 2 6
17 9 34 6 28 -4 29 -5 21 -45z"/>
<path d="M4209 776 c-2 -2 -24 -6 -49 -9 -25 -3 -70 -11 -100 -16 -30 -6 -71
-13 -90 -16 -19 -3 -60 -10 -90 -15 -30 -5 -68 -11 -85 -13 -68 -10 -106 -20
-111 -28 -5 -9 10 -13 30 -10 25 5 55 -12 64 -36 9 -23 49 -234 69 -358 3 -16
10 -55 17 -85 20 -83 6 -127 -39 -134 -11 -2 -21 -8 -23 -15 -3 -10 7 -11 44
-6 26 3 51 8 55 10 4 3 24 7 45 9 22 2 80 12 129 21 50 9 106 18 125 21 19 3
64 11 100 17 62 12 64 13 71 47 13 64 19 131 13 142 -10 16 -24 -12 -24 -48 0
-38 -37 -95 -71 -111 -14 -7 -43 -15 -65 -18 -21 -3 -44 -8 -51 -10 -6 -2 -13
2 -16 8 -9 23 -50 267 -46 271 2 2 26 7 54 11 43 5 101 16 172 30 15 4 20 10
16 25 -6 24 -10 24 -143 1 -58 -10 -108 -16 -112 -12 -3 3 -9 24 -12 46 -3 22
-8 51 -11 65 -3 14 -8 39 -11 55 -3 17 -9 47 -14 68 -9 41 -14 37 75 55 22 4
46 7 53 6 6 -1 21 -2 32 -3 11 0 38 -17 60 -37 22 -20 43 -34 46 -31 11 10
-67 107 -85 107 -10 0 -20 -2 -22 -4z m-209 -73 c0 -8 26 -158 35 -203 3 -14
14 -77 25 -140 11 -63 27 -146 34 -183 14 -73 16 -69 -31 -83 -13 -3 -26 36
-38 116 -4 25 -9 54 -12 65 -2 11 -6 31 -8 45 -6 33 -11 59 -44 238 l-28 152
34 0 c18 0 33 -3 33 -7z m-91 -138 c12 -66 23 -131 26 -145 2 -14 18 -94 33
-178 31 -161 30 -169 -15 -160 -17 3 -27 41 -57 213 -3 17 -17 93 -31 170 -42
221 -42 223 -14 227 13 2 27 2 30 -1 4 -4 16 -60 28 -126z"/>
</g>
</svg>
